<svg width="67" height="72" viewBox="0 0 67 72" fill="none" xmlns="http://www.w3.org/2000/svg">
<path d="M36 23C28.832 23 23 28.832 23 36C23 43.168 28.832 49 36 49C43.168 49 49 43.168 49 36C49 28.832 43.168 23 36 23ZM36 25C38.103 25 40.063 25.605 41.736 26.633L41.5 27.199L42.676 28.375L41.574 29.475L40 28H38L36 30.5L37 32.7L38 32V31H39L40.1 31.9L39 33L35 35H34V37H35L37 36L38 37H40V36L40.8 34.8L43 34V36H41V37H43L45 40L46 39V38H45V37H46L46.96 36.793C46.8204 38.7745 46.1428 40.6803 45 42.305V42H43.9L41.5 38L39 39L36 38L33 39L32 42L33 44H35L36 43L37 44V46.95C36.67 46.98 36.338 47 36 47C29.935 47 25 42.065 25 36C25 35.073 25.129 34.177 25.346 33.316L25.9 33H27V29.695C27.167 29.458 27.337 29.223 27.521 29H28.42L28.857 27.65C29.4868 27.1102 30.1755 26.6433 30.91 26.258L30 29H32L34 27V26H33L32 27V25.764C33.2737 25.2609 34.6306 25.0018 36 25ZM34 31V33H35V31H34Z" fill="#CDAE6F"/>
</svg>
