<svg width="67" height="72" viewBox="0 0 67 72" fill="none" xmlns="http://www.w3.org/2000/svg">
<path d="M22 22V48H50V22H22ZM24.1538 24.6H47.8462V29.8H24.1538V24.6ZM26.3077 25.9V28.5H34.9231V25.9H26.3077ZM44.6154 25.9C44.0231 25.9 43.5385 26.485 43.5385 27.2C43.5385 27.915 44.0231 28.5 44.6154 28.5C45.2077 28.5 45.6923 27.915 45.6923 27.2C45.6923 26.485 45.2077 25.9 44.6154 25.9ZM24.1538 32.4H47.8462V37.6H24.1538V32.4ZM26.3077 33.7V36.3H34.9231V33.7H26.3077ZM44.6154 33.7C44.0231 33.7 43.5385 34.285 43.5385 35C43.5385 35.715 44.0231 36.3 44.6154 36.3C45.2077 36.3 45.6923 35.715 45.6923 35C45.6923 34.285 45.2077 33.7 44.6154 33.7ZM24.1538 40.2H47.8462V45.4H24.1538V40.2ZM26.3077 41.5V44.1H34.9231V41.5H26.3077ZM44.6154 41.5C44.0231 41.5 43.5385 42.085 43.5385 42.8C43.5385 43.515 44.0231 44.1 44.6154 44.1C45.2077 44.1 45.6923 43.515 45.6923 42.8C45.6923 42.085 45.2077 41.5 44.6154 41.5Z" fill="#CDAE6F"/>
</svg>
